<svg width="70" height="70" viewBox="0 0 70 70" fill="none" xmlns="http://www.w3.org/2000/svg">
<path d="M20.9181 62.3316C18.2515 59.9804 15.4069 57.7262 13.4631 54.5519C9.37294 48.9542 6.22375 42.4733 4.07082 35.6626C2.76953 31.234 2.32386 26.486 0.64632 22.2285C-1.10855 19.1363 0.947041 15.756 3.96863 14.773C5.31391 14.4836 7.67933 13.0612 4.82403 14.0778C2.26416 16.1832 2.01643 12.1668 4.64137 11.9124C6.43277 11.6455 7.09222 10.0016 6.47962 8.5217C4.55665 7.11599 11.1425 5.5711 7.82879 3.47358C4.37674 -0.70137 12.6575 -1.50506 10.6145 3.23641C10.1255 6.8824 16.4007 2.56817 14.9447 6.7785C16.4245 8.80045 20.4864 7.2387 20.3856 10.0753C22.5414 10.2414 23.2813 12.2747 25.305 12.4308C27.4024 13.4926 31.2046 14.3293 31.9183 16.9787C29.8374 18.8254 25.019 13.1642 24.7875 18.276C25.4161 25.8274 25.2559 33.6063 27.7206 40.7975C28.8864 45.1518 31.7125 48.5795 34.2647 51.9708C36.7068 55.2922 40.0146 57.6303 43.3861 59.5991C46.3436 61.1627 49.5321 62.1997 52.7553 62.8504C54.0626 61.7294 56.3706 57.5621 58.4101 59.3194C58.5068 61.2939 54.3622 63.4469 58.2151 63.2287C60.4774 62.4636 62.0466 65.19 63.9096 62.7308C65.626 65.0099 71.0437 61.2747 69.8224 65.9331C68.171 67.1274 65.7626 66.4057 64.1084 68.0487C61.3812 66.5218 59.21 69.415 56.1908 69.0491C52.8378 69.7223 49.4267 69.9941 46.0274 70C40.4505 69.5061 34.7555 69.2979 29.4502 67.1213C26.4615 66.1478 23.5449 64.2401 20.9181 62.3316ZM25.628 64.6192C28.5464 66.0339 31.4 67.525 34.5984 67.9748C39.6726 68.7659 44.9126 69.9827 50.005 68.8727C47.7002 67.7061 45.3175 69.3272 43.0214 68.0385C40.2676 68.7028 37.3124 67.8693 34.5128 67.459C31.3292 65.8693 27.8935 64.7762 24.9122 62.7128C21.1869 61.1875 26.8389 64.6689 27.8449 64.9509C30.1737 66.4326 25.284 64.1913 24.5947 63.5753C22.6442 62.3488 22.3956 62.6051 24.4015 63.8507C24.8055 64.1158 25.2048 64.3935 25.628 64.6192ZM20.0749 60.22C22.9029 61.3942 20.0624 57.9907 18.7666 58.1885C18.1924 57.0719 16.573 56.3665 17.7153 55.7667C15.6605 56.5664 15.5628 52.7257 14.5969 53.2745C12.423 52.505 13.7508 49.7791 11.1613 48.1052C10.925 46.3413 8.58859 44.8115 7.84339 42.1509C7.51426 40.7888 5.20379 36.877 6.62312 40.5175C7.8316 44.022 9.95784 47.0233 11.7273 50.021C13.1012 52.8753 14.7236 55.8583 17.2259 57.6389C18.0694 58.5459 18.8838 59.9357 20.0749 60.22ZM11.9281 50.1933C12.0268 49.7146 12.4453 51.2295 11.9281 50.1933V50.1933ZM23.4617 61.6276C22.5612 61.2316 24.0879 61.3132 23.4617 61.6276V61.6276ZM24.9968 62.2553C24.296 62.74 24.8378 61.3885 24.9968 62.2553V62.2553ZM26.9184 63.1539C25.5085 62.5382 27.8332 62.1774 26.9184 63.1539V63.1539ZM30.2118 65.2115C28.4326 64.8639 30.7678 64.2904 30.2118 65.2115V65.2115ZM23.8875 60.2695C22.0523 60.2553 25.3085 59.2391 23.8875 60.2695V60.2695ZM25.3291 61.0753C24.8153 61.3192 25.2888 60.5305 25.3291 61.0753V61.0753ZM32.5337 66.1161C33.6919 66.9354 39.297 67.912 35.7872 66.4521C35.1999 66.5909 29.2791 64.5748 32.5337 66.1161ZM21.0961 56.1305C19.2984 55.5273 20.9835 55.5841 21.0961 56.1305V56.1305ZM24.4501 58.3217C22.6384 57.7953 25.323 57.6393 24.4501 58.3217V58.3217ZM27.2713 60.2608C25.2393 59.7289 28.5239 59.7314 27.2713 60.2608V60.2608ZM19.7313 54.4642C21.0904 55.6326 25.2123 54.614 21.8126 53.7668C20.2653 52.8422 16.778 52.2093 19.155 54.3243L19.7313 54.4642L19.7313 54.4642ZM29.1821 60.9303C26.8082 60.3129 29.7482 59.8492 29.1821 60.9303V60.9303ZM26.3103 58.3718C29.6335 59.4256 23.5158 56.016 25.4904 57.984L25.928 58.2061L26.3103 58.3718L26.3103 58.3718ZM32.0681 62.1023C29.2254 61.6159 35.2154 62.1359 32.0681 62.1023V62.1023ZM18.5204 52.423C17.7437 52.4781 18.3974 51.7659 18.5204 52.423V52.423ZM37.392 65.4499C36.3649 66.3331 37.4759 64.263 37.392 65.4499V65.4499ZM23.8913 56.1101C22.9079 56.0845 23.7009 55.4851 23.8913 56.1101V56.1101ZM18.8188 52.0107C16.3451 51.1182 20.6257 51.8891 18.8188 52.0107V52.0107ZM12.8098 47.6566C10.8437 45.9113 12.5849 46.6857 12.8098 47.6566V47.6566ZM28.5849 58.8792C28.254 58.4561 28.4292 58.9717 28.5849 58.8792V58.8792ZM38.4039 65.6337C37.8691 65.8784 38.3724 64.9871 38.4039 65.6337V65.6337ZM27.7159 57.8733C26.1752 57.621 27.8927 57.0402 27.7159 57.8733V57.8733ZM20.401 52.6765C18.2476 51.6578 21.7451 52.5151 20.401 52.6765V52.6765ZM32.7749 61.2956C30.7333 60.8414 34.8697 60.3653 32.7749 61.2956V61.2956ZM26.3385 56.3979C28.7527 56.7468 23.466 54.5571 25.8088 56.2019L26.3385 56.3979L26.3385 56.3979ZM34.7289 62.1811C36.9829 60.6706 36.2398 65.7182 38.5529 62.6075C40.8345 60.74 36.5825 64.9163 39.3945 62.9405C41.4282 61.4157 44.4319 63.6632 46.3295 64.3966C47.6942 64.3214 49.0208 65.7193 50.4197 64.8689C53.1128 64.0557 45.1536 63.6629 47.24 62.2203C44.7759 63.0242 42.9552 61.2618 41.7427 59.4925C38.9787 58.777 35.7829 57.193 34.4034 54.451C33.841 53.4214 35.2159 54.596 33.9179 52.9131C32.2523 51.2525 31.4207 49.3674 30.3026 47.3488C28.9669 46.5501 28.8113 44.199 28.6763 47.27C28.6869 45.3318 27.0636 44.0273 26.6674 44.5696C26.6603 42.703 28.4046 43.6386 27.1835 42.2576C26.9207 40.3229 26.0554 38.307 25.7953 36.1227C25.3911 35.0698 25.7384 32.8147 24.416 35.1983C23.9342 37.7173 24.2561 32.1026 25.0053 33.9541C25.9887 32.0648 24.6522 32.287 24.5975 32.5494C25.2381 30.9553 25.0029 28.6942 24.4304 29.5568C24.7717 27.8673 24.9696 23.3389 23.9195 24.1414C24.556 22.3747 25.1267 16.0572 22.3633 18.4658C21.2434 18.4835 19.304 18.9216 18.3873 19.4326C21.2616 21.2088 18.0981 20.0741 16.9281 19.7918C16.7756 21.4352 15.6167 20.7244 14.1688 20.7406C16.4814 21.0613 13.0427 23.3919 11.716 22.4866C9.99309 23.4097 13.203 25.7139 11.7506 26.4263C11.9291 27.5004 9.11104 26.0384 9.33236 28.5188C7.65972 27.7301 9.10205 31.4612 9.93887 30.1993C12.7837 31.0624 11.9416 33.0302 12.014 34.8994C11.5505 35.9886 9.72555 32.3392 11.6076 32.5082C10.1228 29.8044 9.96515 31.5309 8.73135 32.787C8.44431 32.8782 11.8785 34.5742 9.72337 35.4128C11.6194 35.7407 11.6734 37.6007 12.0594 38.7777C13.199 40.1083 12.9658 37.3084 14.3294 38.9075C13.4665 37.4829 9.75871 34.8936 12.744 35.724C12.728 34.2902 12.2041 33.134 13.1187 33.1621C14.0244 31.3234 12.1701 37.6955 14.2116 35.3587C14.7768 35.0821 14.9167 33.5177 15.9325 35.5064C17.4079 37.1335 16.4655 38.3125 14.3842 36.8227C14.7566 38.2386 17.1684 38.7447 16.7152 40.959C17.1956 42.9065 17.8679 42.1892 18.4538 42.0766C18.9135 43.9688 19.1745 42.5774 19.1963 41.6769C21.3009 42.182 20.8079 43.5766 21.4664 44.5509C22.9167 45.2847 19.3906 39.577 21.8805 42.8346C24.5 45.4858 22.8629 46.5925 20.5121 46.1678C21.9999 46.0331 22.4798 48.4226 24.3408 48.3387C26.0379 49.2437 27.187 52.7198 24.2617 51.2728C23.2471 50.2473 19.6566 48.9822 22.5892 50.9328C25.2977 52.3388 27.4489 53.1799 30.0612 54.9449C31.9307 56.4409 32.7384 58.1545 33.447 58.4937C31.8757 59.335 28.7119 57.8219 31.0612 57.3582C29.5959 57.059 27.9477 56.2283 29.3513 58.275C30.5448 59.392 33.5797 59.2737 34.1237 59.4002C33.6626 60.5393 32.8711 60.6299 34.1426 60.7182C32.7241 61.5657 34.5975 61.6969 34.7289 62.1811H34.7289ZM31.8282 52.9985C30.9652 51.9867 30.742 50.0916 31.6749 51.7406C32.1534 51.956 33.2075 54.8375 31.8282 52.9985H31.8282ZM41.2748 59.7251C41.2905 60.1835 41.8132 59.686 41.2748 59.7251V59.7251ZM30.4655 50.5177C30.4324 48.988 30.7777 51.6975 30.4655 50.5177V50.5177ZM29.5266 49.1016C28.4411 46.7504 30.8951 49.7675 29.5266 49.1016V49.1016ZM18.1489 40.2987C18.4627 41.5214 18.7867 40.108 18.1489 40.2987V40.2987ZM27.2041 45.8007C27.5958 44.152 27.6644 47.1841 27.2041 45.8007V45.8007ZM20.8069 40.8143C20.3559 39.9045 21.7502 41.6676 20.8069 40.8143V40.8143ZM26.2971 42.7872C25.2686 40.2043 27.0252 41.3764 26.5246 43.2105L26.2971 42.7872ZM16.8292 35.7092C16.3694 34.8618 15.6088 32.3755 15.8537 31.6165C16.0752 32.8526 18.1987 36.9362 16.8953 33.3081C15.455 30.2667 18.6171 34.2953 18.9424 35.0538C19.0938 35.8085 18.0537 34.8477 18.7585 36.6171C17.4732 34.6026 17.9997 37.7299 16.8292 35.7092ZM13.9031 33.449C14.0236 31.4787 14.573 34.8001 13.9031 33.449V33.449ZM15.2193 33.9569C15.8474 32.4698 16.2843 36.0301 15.2193 33.9569V33.9569ZM12.0532 31.2114C10.9638 29.9979 10.1755 28.8792 12.1042 30.4582C12.8473 30.4907 10.453 27.9144 12.2831 29.6401C14.2076 30.0334 13.2334 33.1772 12.0532 31.2114ZM13.7163 31.1626C14.0522 31.8544 14.349 30.4598 13.7163 31.1626V31.1626ZM14.7397 31.5304C13.7805 29.5151 15.9037 32.3753 14.7397 31.5304V31.5304ZM12.7053 29.351C9.53837 26.1917 16.6848 31.0031 13.2227 29.9368L12.7053 29.3511L12.7053 29.351ZM21.7791 35.2609C20.4086 34.3398 21.4159 28.7762 21.8833 32.5813C23.2156 32.0982 21.8097 34.5464 22.8034 34.5238C22.6468 36.0685 22.2023 36.6238 21.7791 35.2609ZM25.1353 37.4845C25.2697 35.8078 25.4182 38.6308 25.1353 37.4845V37.4845ZM24.5523 36.8388C24.5679 37.6823 24.7032 36.1225 24.5523 36.8388V36.8388ZM13.3266 28.3129C11.292 25.1662 19.2395 31.4959 14.6297 29.111C14.148 28.9698 13.5684 28.9193 13.3266 28.3129ZM19.7894 32.154C19.5969 29.5045 20.2194 32.5932 19.7894 32.154L19.7894 32.154ZM24.6963 35.6825C24.7246 36.6809 25.076 34.1733 24.6963 35.6825V35.6825ZM13.6382 27.112C14.8474 26.822 18.6494 29.4925 15.158 27.8748C14.7701 27.3934 13.9431 27.6121 13.6382 27.112ZM24.0221 32.9135C24.1514 30.2042 24.744 31.2952 24.0266 33.3013L24.0222 32.9135H24.0221H24.0221ZM14.5384 26.1692C15.031 25.3591 13.2305 22.5064 14.7979 25.1459C15.4752 25.7492 16.7589 26.1566 15.6255 26.4103C17.408 28.1731 15.1907 26.888 14.5384 26.1692ZM23.5085 32.0672C23.8087 33.8753 23.8489 28.981 23.5085 32.0672V32.0672ZM13.5094 23.3187C13.7081 23.8808 13.8857 23.1384 13.5094 23.3187V23.3187ZM15.8492 24.8798C16.4513 23.4634 16.96 26.4595 15.8492 24.8798V24.8798ZM22.4492 28.9955C22.4428 28.4515 22.5737 29.7868 22.4492 28.9955V28.9955ZM22.0668 28.0467C21.1508 25.5133 22.9189 29.388 22.0668 28.0467V28.0467ZM21.5044 26.3857C21.3506 25.3389 22.027 27.7009 21.5044 26.3857L21.5044 26.3857ZM22.4198 24.7177C21.7912 23.4759 23.2136 19.2454 23.3723 21.8691C22.7088 23.9135 23.1809 25.0571 23.6437 22.3151C24.4985 20.1571 23.4591 26.5735 22.4197 24.7177L22.4198 24.7177ZM23.3605 18.4263C23.4213 18.8807 23.6345 18.049 23.3605 18.4263V18.4263ZM21.7895 53.1267C21.4169 52.7621 21.8363 53.3586 21.7895 53.1267V53.1267ZM25.0258 54.9618C26.8259 55.4796 26.8167 54.6479 25.1898 54.4008C24.3146 53.4882 21.5533 52.5202 24.0248 54.2875C24.1885 54.7523 24.7057 54.7415 25.0258 54.9618ZM18.6343 50.203C19.626 51.032 22.3698 52.5526 20.0471 50.5186C20.8302 49.4986 18.5482 48.9557 19.3052 48.2735C17.3797 46.9527 17.7862 47.0702 19.1352 47.1118C16.8211 45.9523 19.4692 46.039 19.3445 45.4449C18.4523 45.2473 14.9126 43.6812 16.9949 45.5735C14.8781 44.3636 16.4905 46.0243 15.8507 45.8487C13.686 45.1871 17.7784 47.6968 15.5069 47.0738C16.7487 48.177 18.8495 49.8996 16.0319 48.2413C15.6607 48.8403 18.0482 49.7483 18.6343 50.203ZM22.019 52.3828C20.0013 50.5665 26.1345 53.8694 22.019 52.3828V52.3828ZM39.3457 64.1492C38.7832 64.9299 39.3988 63.2339 39.3457 64.1492V64.1492ZM41.1265 64.9894C42.076 63.958 41.1653 66.6322 42.6999 64.7369C42.7165 63.38 42.6526 62.5786 40.9364 64.2268C40.4634 64.521 40.2521 65.7715 41.1265 64.9894ZM12.8574 45.088C10.8134 43.8096 12.5658 43.803 12.8574 45.088V45.088ZM14.759 46.4848C12.2395 45.2966 14.0529 45.1723 14.759 46.4848V46.4848ZM25.5774 53.7985C26.6337 54.8502 30.4285 54.5702 26.8603 53.9279C26.3318 53.052 23.5045 53.2628 25.5774 53.7985ZM40.4492 64.0942C38.8741 64.7764 42.0748 62.5651 40.4492 64.0942V64.0942ZM43.8301 66.6987C43.1294 66.9135 43.8402 66.208 43.8301 66.6987V66.6987ZM43.8353 66.0117C45.6355 63.8736 42.091 66.1381 43.8353 66.0117H43.8353ZM8.18026 40.6986C6.64596 38.2446 7.22649 37.1415 5.7469 35.1378C5.46679 33.6055 3.20861 30.1285 4.57891 33.8121C5.83403 35.9665 6.207 39.3022 8.18026 40.6986ZM43.2706 65.332C41.9112 64.2867 46.5826 62.9324 43.2706 65.332V65.332ZM45.7988 66.4422C44.7497 66.1083 47.4573 64.846 45.7988 66.4422V66.4422ZM12.2937 42.3755C11.0679 42.2742 12.7684 41.5839 12.2937 42.3755V42.3755ZM45.271 65.6842C46.8768 64.5235 44.901 64.7017 44.9799 65.7909L45.271 65.6842ZM23.4777 50.286C22.6297 50.3525 23.4225 49.5023 23.4777 50.286V50.286ZM24.8246 51.1547C24.1665 51.3071 24.3965 50.1846 24.8246 51.1547V51.1547ZM47.8477 66.4685C49.9049 64.8049 46.6006 66.15 47.4158 66.7837L47.8477 66.4685ZM47.0599 66.0417C45.2905 66.7393 48.7358 64.4675 47.0599 66.0417V66.0417ZM51.0849 69.0464C49.7178 68.7731 52.2101 68.2016 51.0849 69.0464V69.0464ZM13.3257 41.8046C14.834 42.1835 19.3533 45.9686 16.6871 42.0664C15.3216 41.6133 16.1405 37.8716 14.7477 38.5338C15.6826 40.2845 15.5169 41.0297 13.5541 39.926C11.0871 38.5761 12.1677 40.5949 12.6499 41.1514C11.9928 41.3187 13.5189 41.7906 13.3257 41.8046ZM6.45389 35.7211C6.72392 34.4691 3.96755 28.8336 5.15229 32.8973C5.57995 33.7485 5.53647 35.3618 6.45389 35.7211ZM19.0666 44.4379C18.29 43.7098 19.0297 44.3348 19.0666 44.4379V44.4379ZM20.9792 44.9368C18.8651 44.3983 20.9783 43.6106 20.9792 44.9368V44.9368ZM37.5534 56.6494C37.2373 55.7433 36.3039 56.6284 37.5534 56.6494L37.5534 56.6494ZM38.3493 57.3011C37.8901 57.399 38.2318 56.794 38.3493 57.3011V57.3011ZM44.9188 61.9397C44.1303 61.8729 45.5506 61.4165 44.9188 61.9397V61.9397ZM9.88642 36.7034C7.95011 36.1441 11.6936 35.9191 9.88642 36.7034V36.7034ZM36.0943 55.2121C34.9422 55.5375 36.0742 53.9006 36.0943 55.2121V55.2121ZM9.17239 34.8382C8.09848 34.5487 10.3333 34.3986 9.17239 34.8382V34.8382ZM12.5419 36.6679C12.1854 36.831 12.5208 36.2368 12.5419 36.6679V36.6679ZM53.6396 64.9185C55.1323 64.5792 58.5341 65.7702 59.0839 64.4748C57.2711 64.4255 52.8121 63.0411 52.6011 64.8052L52.9979 64.8752L53.6396 64.9185ZM13.6128 36.9704C12.6883 36.9207 13.6387 35.6414 13.6128 36.9704V36.9704ZM4.75355 30.0814C3.22333 29.6982 4.35122 27.5494 4.75355 30.0814V30.0814ZM6.86615 30.6767C4.93248 29.9451 6.89211 29.8636 6.86615 30.6767V30.6767ZM8.07344 31.3414C7.72446 31.0245 7.80028 31.7417 8.07344 31.3414V31.3414ZM15.6699 36.8041C14.8232 36.5313 16.0275 36.4358 15.6699 36.8041V36.8041ZM7.26933 29.8423C4.82247 29.5558 7.06514 27.9298 7.26933 29.8423V29.8423ZM2.93815 26.692C2.51608 27.025 2.87655 25.8094 2.93815 26.692V26.692ZM3.5824 26.1466C3.02927 26.2797 3.47729 25.1 3.5824 26.1466V26.1466ZM7.14203 28.5284C8.64724 27.8656 4.40029 27.1575 6.83447 28.4032L7.14203 28.5284ZM54.7821 61.515C53.5577 61.2089 55.7455 60.5249 54.7821 61.515V61.515ZM60.5374 64.8592C59.5653 65.0278 60.9234 63.5791 60.5374 64.8592V64.8592ZM7.50582 26.437C6.3125 26.6829 7.66438 25.1986 7.50582 26.437V26.437ZM2.44133 22.6333C2.16926 20.885 2.20648 17.8162 4.80878 18.8533C1.33514 19.6264 7.21292 23.693 6.47067 20.4823C7.93125 20.5624 9.3279 19.5146 8.56141 21.1047C11.4392 20.7484 13.4343 17.9511 16.2141 18.3431C18.3793 18.0219 20.7468 17.7783 23.0802 16.8012C24.9986 16.6463 26.8454 14.3309 25.7939 12.9585C23.1776 12.7103 20.439 13.0773 17.5473 13.7216C14.3429 14.4683 11.4323 15.887 8.1992 16.496C5.04783 16.9706 8.83307 17.8035 7.93039 17.9891C6.28596 18.6287 9.8915 19.06 7.7172 19.7342C6.3744 19.448 4.97671 18.9308 5.55029 17.3445C2.53156 17.7837 -0.121039 19.1881 2.26394 22.6317L2.44133 22.6332L2.44133 22.6331V22.6333ZM9.71538 18.4805C10.4232 15.5576 13.5073 20.8856 10.8755 18.8687C10.5611 18.605 10.0441 18.3898 9.71538 18.4805ZM9.85308 17.0634C10.3961 17.5417 10.8746 16.2103 9.85308 17.0634V17.0634ZM11.1502 17.0865C11.2424 15.7415 14.1195 17.7985 11.6246 17.5706L11.1502 17.0865ZM12.9245 16.2867C13.1108 17.0417 13.5725 15.438 12.9245 16.2867V16.2867ZM13.3784 15.946C14.4574 14.4928 19.4885 15.0186 15.8059 15.8043C14.8188 14.9713 14.0622 16.2955 13.3784 15.946ZM19.9442 14.8115C19.7801 10.842 23.2061 16.2221 19.9442 14.8115V14.8115ZM21.8072 14.8C22.4883 12.7994 24.4503 13.9972 22.1224 14.398C22.1729 14.6109 22.0541 15.4309 21.8072 14.8ZM6.77118 25.4101C4.6107 24.1981 8.80628 24.0131 6.77118 25.4101V25.4101ZM8.27592 25.8788C6.72554 25.5338 8.98945 25.0283 8.27592 25.8788V25.8788ZM3.84225 22.3515C2.46618 21.9708 5.00511 21.3501 3.84225 22.3515V22.3515ZM63.9345 64.4933C63.0457 65.0169 63.9681 63.3316 63.9345 64.4933V64.4933ZM57.8283 59.8222C57.0436 59.9389 58.002 58.4847 57.8283 59.8222V59.8222ZM65.6135 64.9438C67.2394 64.95 70.5397 64.3778 67.0022 64.3796C66.4471 64.4767 63.7676 64.4559 65.6136 64.9438L65.6135 64.9438ZM9.59953 25.059C10.9153 24.9576 11.6582 23.4319 9.34505 23.5196C5.7601 23.1036 12.508 24.8956 8.88516 24.3832C8.39836 24.7446 9.57125 25.1589 9.59953 25.059ZM10.7584 25.7165C10.3515 26.2196 10.621 24.7694 10.7584 25.7165V25.7165ZM12.133 21.6075C11.3429 21.3953 12.704 20.8136 12.133 21.6075V21.6075ZM7.75702 13.4079C10.1053 12.5123 13.3166 11.506 14.4254 13.8488C13.297 12.3263 13.97 10.8275 15.0358 13.0535C16.5429 15.3057 17.2974 12.0292 16.3171 11.2737C17.4342 12.8296 18.7047 13.5648 17.0651 11.3721C18.8468 8.96949 13.4974 11.6867 12.2815 11.6593C11.6965 11.9537 6.24178 13.2187 7.75702 13.4079ZM9.13326 10.4532C10.4725 9.32011 13.7652 11.1273 11.6523 9.32711C11.4457 9.12257 7.02512 10.6922 9.13326 10.4532ZM14.0158 10.6792C15.5832 10.724 13.3397 8.31877 15.2075 9.40867C14.9007 8.28531 13.0329 8.07501 12.1197 7.62619C11.6032 8.65326 13.171 10.693 14.0158 10.6792ZM9.9894 5.71085C9.03907 6.12861 10.5317 4.88683 9.9894 5.71085V5.71085ZM11.985 6.24627C14.5109 5.87072 11.3411 5.0269 11.476 6.2161L11.985 6.24627V6.24627V6.24627ZM8.25883 2.97792C6.48031 0.375336 11.6036 3.41541 9.79661 0.690411C8.27574 -0.667178 6.81427 2.21816 8.25883 2.97792ZM31.0833 16.7592C31.8991 15.1382 27.7155 14.5742 30.5337 16.1847C30.7932 16.2819 30.7345 16.8713 31.0833 16.7592Z" fill="white"/>
</svg>
