<svg width="17" height="18" viewBox="0 0 17 18" fill="none" xmlns="http://www.w3.org/2000/svg">
<path d="M8.5 18C3.77655 16.9895 0 12.6998 0 8.18182V3.27273L8.5 0L17 3.27273V8.18182C17 12.7015 13.2235 16.9895 8.5 18ZM1.7 4.09091V8.18182C1.74857 10.0736 2.43981 11.8979 3.6679 13.3755C4.896 14.8532 6.59329 15.9028 8.5 16.3636C10.4067 15.9028 12.104 14.8532 13.3321 13.3755C14.5602 11.8979 15.2514 10.0736 15.3 8.18182V4.09091L8.5 1.63636L1.7 4.09091Z" fill="#A1B1CF"/>
<path d="M8.5 8.18271C9.67361 8.18271 10.625 7.26692 10.625 6.13725C10.625 5.00758 9.67361 4.0918 8.5 4.0918C7.32639 4.0918 6.375 5.00758 6.375 6.13725C6.375 7.26692 7.32639 8.18271 8.5 8.18271Z" fill="#A1B1CF"/>
<path d="M4.25 11.4545C4.66896 12.1894 5.28325 12.804 6.03002 13.2353C6.77678 13.6666 7.62919 13.8991 8.5 13.9091C9.37081 13.8991 10.2232 13.6666 10.97 13.2353C11.7167 12.804 12.331 12.1894 12.75 11.4545C12.7288 9.90327 9.9093 9 8.5 9C7.08305 9 4.27125 9.90327 4.25 11.4545Z" fill="#A1B1CF"/>
</svg>
