<svg width="14" height="14" viewBox="0 0 14 14" fill="none" xmlns="http://www.w3.org/2000/svg">
<path d="M0.875 0.875H13.125C13.609 0.875 14 1.26602 14 1.75V2.625C14 3.10898 13.609 3.5 13.125 3.5H0.875C0.391016 3.5 0 3.10898 0 2.625V1.75C0 1.26602 0.391016 0.875 0.875 0.875ZM0.875 4.375H13.125V11.375C13.125 12.3402 12.3402 13.125 11.375 13.125H2.625C1.65977 13.125 0.875 12.3402 0.875 11.375V4.375ZM4.375 6.5625C4.375 6.80312 4.57188 7 4.8125 7H9.1875C9.42813 7 9.625 6.80312 9.625 6.5625C9.625 6.32188 9.42813 6.125 9.1875 6.125H4.8125C4.57188 6.125 4.375 6.32188 4.375 6.5625Z" fill="#8F9EB8"/>
</svg>
