<svg width="15" height="16" viewBox="0 0 15 16" fill="none" xmlns="http://www.w3.org/2000/svg">
<path d="M2.99965 5.17594C2.99965 4.91607 3.22349 4.7054 3.4996 4.7054H8.49902C8.77509 4.7054 8.99896 4.91607 8.99896 5.17594C8.99896 5.43581 8.77509 5.64648 8.49902 5.64648H3.4996C3.22349 5.64648 2.99965 5.43581 2.99965 5.17594ZM3.4996 7.52864C3.22349 7.52864 2.99965 7.73934 2.99965 7.99918C2.99965 8.25901 3.22349 8.46972 3.4996 8.46972H8.49902C8.77509 8.46972 8.99896 8.25901 8.99896 7.99918C8.99896 7.73934 8.77509 7.52864 8.49902 7.52864H3.4996ZM2.99965 10.8224C2.99965 10.5626 3.22349 10.3519 3.4996 10.3519H5.49937C5.77548 10.3519 5.99931 10.5626 5.99931 10.8224C5.99931 11.0822 5.77548 11.293 5.49937 11.293H3.4996C3.22349 11.293 2.99965 11.0822 2.99965 10.8224ZM1.99977 0.47054C1.99977 0.21067 2.2236 0 2.49971 0C2.77582 0 2.99965 0.21067 2.99965 0.47054V0.941079H5.49937V0.47054C5.49937 0.21067 5.7232 0 5.99931 0C6.27538 0 6.49925 0.21067 6.49925 0.47054V0.941079H8.99896V0.47054C8.99896 0.21067 9.22284 0 9.49891 0C9.77497 0 9.99885 0.21067 9.99885 0.47054V0.941079H10.4988C11.3271 0.941079 11.9986 1.57308 11.9986 2.3527V6.80554C11.6725 6.93706 11.367 7.12811 11.1007 7.37867L10.9987 7.47467V2.3527C10.9987 2.09283 10.7749 1.88216 10.4988 1.88216H1.49983C1.22372 1.88216 0.999885 2.09283 0.999885 2.3527V13.6457C0.999885 13.9055 1.22372 14.1162 1.49983 14.1162H5.21987L5.05658 14.7309C5.02737 14.8409 5.00957 14.9499 5.00228 15.0573H1.49983C0.671493 15.0573 0 14.4252 0 13.6457V2.3527C0 1.57308 0.671493 0.941079 1.49983 0.941079H1.99977V0.47054ZM11.8078 8.04416L6.979 12.589C6.69743 12.854 6.49765 13.186 6.40106 13.5496L6.02671 14.9592C5.86384 15.5722 6.45386 16.1275 7.10518 15.9743L8.60291 15.6218C8.98917 15.5309 9.34193 15.343 9.62349 15.078L14.4523 10.5331C15.1826 9.84576 15.1826 8.73143 14.4523 8.04416C13.7221 7.3568 12.5381 7.3568 11.8078 8.04416Z" fill="#A1B1CF"/>
</svg>
