<svg width="17" height="17" viewBox="0 0 17 17" fill="none" xmlns="http://www.w3.org/2000/svg">
<path d="M10.5455 6.45455L12.5909 8.5L10.5455 10.5455M6.45455 10.5455L4.40909 8.5L6.45455 6.45455M3.04545 16H13.9545C14.497 16 15.0173 15.7845 15.4009 15.4009C15.7845 15.0173 16 14.497 16 13.9545V3.04545C16 2.50297 15.7845 1.9827 15.4009 1.5991C15.0173 1.2155 14.497 1 13.9545 1H3.04545C2.50297 1 1.9827 1.2155 1.5991 1.5991C1.2155 1.9827 1 2.50297 1 3.04545V13.9545C1 14.497 1.2155 15.0173 1.5991 15.4009C1.9827 15.7845 2.50297 16 3.04545 16Z" stroke="#A1B1CF" stroke-width="1.5" stroke-linecap="round" stroke-linejoin="round"/>
</svg>
