<svg width="15" height="14" viewBox="0 0 15 14" fill="none" xmlns="http://www.w3.org/2000/svg">
<path d="M7.5 3.11111V1.55556C7.5 0.7 6.825 0 6 0H1.5C0.675 0 0 0.7 0 1.55556V12.4444C0 13.3 0.675 14 1.5 14H13.5C14.325 14 15 13.3 15 12.4444V4.66667C15 3.81111 14.325 3.11111 13.5 3.11111H7.5ZM3 12.4444H1.5V10.8889H3V12.4444ZM3 9.33333H1.5V7.77778H3V9.33333ZM3 6.22222H1.5V4.66667H3V6.22222ZM3 3.11111H1.5V1.55556H3V3.11111ZM6 12.4444H4.5V10.8889H6V12.4444ZM6 9.33333H4.5V7.77778H6V9.33333ZM6 6.22222H4.5V4.66667H6V6.22222ZM6 3.11111H4.5V1.55556H6V3.11111ZM12.75 12.4444H7.5V10.8889H9V9.33333H7.5V7.77778H9V6.22222H7.5V4.66667H12.75C13.1625 4.66667 13.5 5.01667 13.5 5.44444V11.6667C13.5 12.0944 13.1625 12.4444 12.75 12.4444ZM12 6.22222H10.5V7.77778H12V6.22222ZM12 9.33333H10.5V10.8889H12V9.33333Z" fill="#A1B1CF"/>
</svg>
