<svg width="13" height="13" viewBox="0 0 13 13" fill="none" xmlns="http://www.w3.org/2000/svg">
<path d="M6.50156 2.6001C6.67395 2.6001 6.83928 2.66858 6.96118 2.79048C7.08308 2.91238 7.15156 3.07771 7.15156 3.2501V7.1501C7.15156 7.32249 7.08308 7.48782 6.96118 7.60972C6.83928 7.73162 6.67395 7.8001 6.50156 7.8001C6.32917 7.8001 6.16384 7.73162 6.04194 7.60972C5.92004 7.48782 5.85156 7.32249 5.85156 7.1501V3.2501C5.85156 3.07771 5.92004 2.91238 6.04194 2.79048C6.16384 2.66858 6.32917 2.6001 6.50156 2.6001ZM6.50156 9.1001C6.32917 9.1001 6.16384 9.16858 6.04194 9.29048C5.92004 9.41238 5.85156 9.57771 5.85156 9.7501C5.85156 9.92249 5.92004 10.0878 6.04194 10.2097C6.16384 10.3316 6.32917 10.4001 6.50156 10.4001C6.67395 10.4001 6.83928 10.3316 6.96118 10.2097C7.08308 10.0878 7.15156 9.92249 7.15156 9.7501C7.15156 9.57771 7.08308 9.41238 6.96118 9.29048C6.83928 9.16858 6.67395 9.1001 6.50156 9.1001Z" fill="#ED6C6C"/>
<path fill-rule="evenodd" clip-rule="evenodd" d="M6.5 0C2.91005 0 0 2.91005 0 6.5C0 10.0899 2.91005 13 6.5 13C10.0899 13 13 10.0899 13 6.5C13 2.91005 10.0899 0 6.5 0ZM1.3 6.5C1.3 7.87913 1.84786 9.20177 2.82304 10.177C3.79823 11.1521 5.12087 11.7 6.5 11.7C7.87913 11.7 9.20177 11.1521 10.177 10.177C11.1521 9.20177 11.7 7.87913 11.7 6.5C11.7 5.12087 11.1521 3.79823 10.177 2.82304C9.20177 1.84786 7.87913 1.3 6.5 1.3C5.12087 1.3 3.79823 1.84786 2.82304 2.82304C1.84786 3.79823 1.3 5.12087 1.3 6.5Z" fill="#ED6C6C"/>
</svg>
