<svg width="15" height="15" viewBox="0 0 15 15" fill="none" xmlns="http://www.w3.org/2000/svg">
<path d="M7.5 0C3.35775 0 0 3.35775 0 7.5C0 11.6423 3.35775 15 7.5 15C11.6423 15 15 11.6423 15 7.5C15 3.35775 11.6423 0 7.5 0ZM12.6885 4.5H10.2773C10.1652 3.6561 10.0238 2.81635 9.8535 1.98225C11.0444 2.4952 12.0385 3.37802 12.6885 4.5ZM8.2605 1.554C8.3115 1.818 8.55075 3.0825 8.74425 4.5H6.25575C6.44925 3.0825 6.6885 1.818 6.7395 1.554C6.98925 1.52175 7.242 1.5 7.5 1.5C7.758 1.5 8.01075 1.52175 8.2605 1.554ZM9 7.5C9 7.9485 8.96775 8.4645 8.91825 9H6.08175C6.03225 8.4645 6 7.9485 6 7.5C6 7.0515 6.03225 6.5355 6.08175 6H8.91825C8.96775 6.5355 9 7.0515 9 7.5ZM5.1465 1.98225C4.97618 2.81635 4.83485 3.6561 4.72275 4.5H2.3115C2.96153 3.37802 3.9556 2.4952 5.1465 1.98225ZM1.69725 6H4.563C4.52475 6.501 4.5 7.008 4.5 7.5C4.5 7.992 4.52475 8.499 4.56375 9H1.69725C1.57275 8.51925 1.5 8.019 1.5 7.5C1.5 6.981 1.5735 6.48075 1.69725 6ZM2.3115 10.5H4.72275C4.86375 11.568 5.03775 12.4875 5.1465 13.0177C3.9556 12.5048 2.96153 11.622 2.3115 10.5ZM6.7395 13.446C6.55298 12.4683 6.39168 11.486 6.25575 10.5H8.74425C8.60799 11.4859 8.44669 12.4683 8.2605 13.446C8.01075 13.4782 7.758 13.5 7.5 13.5C7.242 13.5 6.98925 13.4782 6.7395 13.446ZM9.8535 13.0177C9.96225 12.4875 10.1363 11.568 10.2773 10.5H12.6885C12.0385 11.622 11.0444 12.5048 9.8535 13.0177ZM13.3027 9H10.437C10.4753 8.499 10.5 7.992 10.5 7.5C10.5 7.008 10.4753 6.501 10.4362 6H13.302C13.4265 6.48075 13.5 6.981 13.5 7.5C13.5 8.019 13.4272 8.51925 13.3027 9Z" fill="#A1B1CF"/>
</svg>
