<svg width="14" height="15" viewBox="0 0 14 15" fill="none" xmlns="http://www.w3.org/2000/svg">
<path d="M13 7.0944L7.32667 12.8909C6.63165 13.6011 5.68899 14 4.70608 14C3.72317 14 2.78051 13.6011 2.08549 12.8909C1.39046 12.1808 1 11.2177 1 10.2134C1 9.20917 1.39046 8.24604 2.08549 7.53592L7.75881 1.73937C8.22216 1.26596 8.8506 1 9.50587 1C10.1611 1 10.7896 1.26596 11.2529 1.73937C11.7163 2.21279 11.9766 2.85487 11.9766 3.52438C11.9766 4.19389 11.7163 4.83598 11.2529 5.30939L5.57344 11.1059C5.34176 11.3426 5.02754 11.4756 4.69991 11.4756C4.37227 11.4756 4.05805 11.3426 3.82638 11.1059C3.5947 10.8692 3.46455 10.5482 3.46455 10.2134C3.46455 9.87867 3.5947 9.55763 3.82638 9.32092L9.06756 3.97221" stroke="#CCCCCC" stroke-width="1.5" stroke-linecap="round" stroke-linejoin="round"/>
</svg>
