<svg width="17" height="18" viewBox="0 0 17 18" fill="none" xmlns="http://www.w3.org/2000/svg">
<path d="M16.9529 5.85703C17.0656 6.16289 16.9705 6.50391 16.7274 6.72187L15.2021 8.10703C15.2408 8.39883 15.2619 8.69766 15.2619 9C15.2619 9.30234 15.2408 9.60117 15.2021 9.89297L16.7274 11.2781C16.9705 11.4961 17.0656 11.8371 16.9529 12.143C16.7979 12.5613 16.6112 12.9621 16.3963 13.3488L16.2307 13.6336C15.9982 14.0203 15.7375 14.3859 15.4522 14.7305C15.2443 14.9836 14.8991 15.068 14.5891 14.9695L12.6269 14.3473C12.1549 14.7094 11.6335 15.0117 11.0769 15.2402L10.6366 17.2477C10.5661 17.5676 10.3195 17.8207 9.99541 17.8734C9.50927 17.9543 9.00904 17.9965 8.49824 17.9965C7.98744 17.9965 7.48721 17.9543 7.00106 17.8734C6.67697 17.8207 6.43038 17.5676 6.35992 17.2477L5.91957 15.2402C5.36298 15.0117 4.84161 14.7094 4.36956 14.3473L2.4109 14.973C2.1009 15.0715 1.75567 14.9836 1.54782 14.734C1.26248 14.3895 1.0018 14.0238 0.769293 13.6371L0.603723 13.3523C0.388834 12.9656 0.202128 12.5648 0.047126 12.1465C-0.0656024 11.8406 0.0295122 11.4996 0.272583 11.2816L1.79794 9.89648C1.75919 9.60117 1.73805 9.30234 1.73805 9C1.73805 8.69766 1.75919 8.39883 1.79794 8.10703L0.272583 6.72187C0.0295122 6.50391 -0.0656024 6.16289 0.047126 5.85703C0.202128 5.43867 0.388834 5.03789 0.603723 4.65117L0.769293 4.36641C1.0018 3.97969 1.26248 3.61406 1.54782 3.26953C1.75567 3.01641 2.1009 2.93203 2.4109 3.03047L4.37308 3.65273C4.84513 3.29063 5.3665 2.98828 5.9231 2.75977L6.36344 0.752344C6.4339 0.432422 6.68049 0.179297 7.00459 0.126562C7.49073 0.0421875 7.99096 0 8.50176 0C9.01256 0 9.5128 0.0421875 9.99894 0.123047C10.323 0.175781 10.5696 0.428906 10.6401 0.748828L11.0804 2.75625C11.637 2.98477 12.1584 3.28711 12.6304 3.64922L14.5926 3.02695C14.9026 2.92852 15.2479 3.01641 15.4557 3.26602C15.741 3.61055 16.0017 3.97617 16.2342 4.36289L16.3998 4.64766C16.6147 5.03437 16.8014 5.43516 16.9564 5.85352L16.9529 5.85703ZM8.50176 11.8125C10.0588 11.8125 11.32 10.5539 11.32 9C11.32 7.44609 10.0588 6.1875 8.50176 6.1875C6.9447 6.1875 5.68355 7.44609 5.68355 9C5.68355 10.5539 6.9447 11.8125 8.50176 11.8125Z" fill="#A1B1CF"/>
</svg>
