<svg width="15" height="18" viewBox="0 0 15 18" fill="none" xmlns="http://www.w3.org/2000/svg">
<path d="M3.21429 4.44241V2.40171C3.21429 1.93213 3.49219 1.50846 3.91071 1.34252L7.125 0.0714951C7.36607 -0.0238317 7.63393 -0.0238317 7.87835 0.0714951L11.0926 1.34252C11.5112 1.50846 11.7891 1.9286 11.7891 2.40171V4.44241H11.779C11.7857 4.5342 11.7891 4.62953 11.7891 4.72486V6.13711C11.7891 8.63326 9.87054 10.6563 7.50335 10.6563C5.13616 10.6563 3.21763 8.63326 3.21763 6.13711V4.72486C3.21763 4.62953 3.22098 4.5342 3.22768 4.44241H3.21429ZM4.82143 6.13711C4.82143 7.69764 6.02009 8.9616 7.5 8.9616C8.97991 8.9616 10.1786 7.69764 10.1786 6.13711V5.57221H4.82143V6.13711ZM4.32254 11.3342L7.10826 14.4553C7.3192 14.6918 7.67746 14.6918 7.88839 14.4553L10.6741 11.3342C13.1417 11.8602 14.9967 14.1587 14.9967 16.9161C14.9967 17.5163 14.5346 18 13.9688 18H1.0279C0.462054 18 0 17.5128 0 16.9161C0 14.1587 1.85826 11.8602 4.32254 11.3342ZM6.96429 1.61791V2.18281H6.42857C6.28125 2.18281 6.16071 2.30991 6.16071 2.46526V3.03016C6.16071 3.1855 6.28125 3.31261 6.42857 3.31261H6.96429V3.87751C6.96429 4.03285 7.08482 4.15996 7.23214 4.15996H7.76786C7.91518 4.15996 8.03571 4.03285 8.03571 3.87751V3.31261H8.57143C8.71875 3.31261 8.83929 3.1855 8.83929 3.03016V2.46526C8.83929 2.30991 8.71875 2.18281 8.57143 2.18281H8.03571V1.61791C8.03571 1.46256 7.91518 1.33546 7.76786 1.33546H7.23214C7.08482 1.33546 6.96429 1.46256 6.96429 1.61791Z" fill="#A1B1CF"/>
</svg>
