<svg width="30" height="36" viewBox="0 0 30 36" fill="none" xmlns="http://www.w3.org/2000/svg">
<path d="M15 23.3333V27.6M6.33333 14.8V10.5333C6.33333 8.27015 7.24643 6.09967 8.87174 4.49936C10.4971 2.89904 12.7015 2 15 2C17.2985 2 19.5029 2.89904 21.1283 4.49936C22.7536 6.09967 23.6667 8.27015 23.6667 10.5333V14.8M4.16667 34H25.8333C26.408 34 26.9591 33.7752 27.3654 33.3752C27.7717 32.9751 28 32.4325 28 31.8667V16.9333C28 16.3675 27.7717 15.8249 27.3654 15.4248C26.9591 15.0248 26.408 14.8 25.8333 14.8H4.16667C3.59203 14.8 3.04093 15.0248 2.6346 15.4248C2.22827 15.8249 2 16.3675 2 16.9333V31.8667C2 32.4325 2.22827 32.9751 2.6346 33.3752C3.04093 33.7752 3.59203 34 4.16667 34Z" stroke="#2C406E" stroke-width="3.5" stroke-linecap="round" stroke-linejoin="round"/>
</svg>
