<svg width="48" height="55" viewBox="0 0 48 55" fill="none" xmlns="http://www.w3.org/2000/svg">
<path d="M0 32.8408V2.86531L14.6606 17.4122L22.8794 25.7878L32 17.4122L37.0957 22.9224L24.4343 34.6041H1.77704C0.355407 34.6041 0 33.4286 0 32.8408Z" fill="#1A97DA"/>
<path d="M22.8794 21.1592L2.2213 0H44.8702L22.8794 21.1592Z" fill="#1A97DA"/>
<path d="M34.5 15L46.8694 2.86531V27.5L34.5 15Z" fill="#1A97DA"/>
<path d="M42 32L40 25.7878C40 25 39.0214 24.666 38.5 25L25 37C23.1489 36.4857 18.5 36 17.5 41C17.1966 42.5168 18 45 20 46.5C21.1847 47.3816 24.5121 48.1812 27 46.0653L46.4251 47.7126C46.9603 47.7802 47.4156 47.7126 47.3136 47.1673L45.3144 39.8939C48.5131 38.8359 48 35 47.5 34C46.3206 31.6411 43.629 31.6327 42 32Z" fill="#1A97DA"/>
<path d="M27 47C25.7561 48.1693 23.3885 48.0812 22.5 48L26.5 55L28.5 54.5L27 47Z" fill="#1A97DA"/>
</svg>
