<svg width="21" height="18" viewBox="0 0 21 18" fill="none" xmlns="http://www.w3.org/2000/svg">
<path d="M7.53914 9C5.1596 9 3.23106 6.98555 3.23106 4.5C3.23106 2.01445 5.1596 0 7.53914 0C9.91868 0 11.8472 2.01445 11.8472 4.5C11.8472 6.98555 9.91868 9 7.53914 9ZM6.00102 10.6875H9.07726C9.47441 10.6875 9.86483 10.7297 10.2384 10.8035C10.1677 11.4539 10.4875 12.0551 10.9721 12.3785C10.4134 12.7512 10.0735 13.4895 10.299 14.2523C10.4336 14.7059 10.6154 15.1488 10.851 15.5742C11.0866 15.9996 11.3626 16.3863 11.6722 16.7344C12.2006 17.3285 13.005 17.3813 13.5974 17.0402V17.0719C13.5974 17.3953 13.6882 17.7223 13.8633 17.9965H0.999609C0.447636 18 0 17.5324 0 16.9559C0 13.493 2.68582 10.6875 6.00102 10.6875ZM14.6744 7.67109C14.6744 7.425 14.8258 7.20352 15.0547 7.15078C15.4081 7.06641 15.7783 7.0207 16.1553 7.0207C16.5323 7.0207 16.9025 7.06641 17.2559 7.15078C17.4847 7.20352 17.6362 7.425 17.6362 7.67109V8.74687C17.9021 8.86641 18.1545 9.01758 18.3867 9.19688L19.2248 8.69414C19.4301 8.57109 19.6859 8.59922 19.8475 8.77852C20.1032 9.06328 20.3287 9.3832 20.524 9.73477C20.7192 10.0863 20.8706 10.452 20.9783 10.8246C21.049 11.0602 20.9413 11.3063 20.736 11.4293L19.8946 11.9355C19.908 12.0762 19.9181 12.2203 19.9181 12.368C19.9181 12.5156 19.9114 12.6562 19.8946 12.8004L20.736 13.3066C20.9413 13.4297 21.0456 13.6758 20.9783 13.9113C20.8673 14.284 20.7158 14.6496 20.524 15.0012C20.3321 15.3527 20.1032 15.6727 19.8475 15.9574C19.6859 16.1367 19.4267 16.1648 19.2248 16.0418L18.3867 15.5391C18.1545 15.7184 17.9055 15.8695 17.6362 15.9891V17.0648C17.6362 17.3109 17.4847 17.5324 17.2559 17.5852C16.9025 17.6695 16.5323 17.7152 16.1553 17.7152C15.7783 17.7152 15.4081 17.6695 15.0547 17.5852C14.8258 17.5324 14.6744 17.3109 14.6744 17.0648V15.9891C14.4051 15.8695 14.1493 15.7184 13.9171 15.5355L13.0858 16.0383C12.8805 16.1613 12.6247 16.1332 12.4631 15.9539C12.2073 15.6691 11.9818 15.3492 11.7866 14.9977C11.5914 14.6461 11.44 14.2805 11.3323 13.9078C11.2616 13.6723 11.3693 13.4262 11.5746 13.3031L12.4093 12.8004C12.3958 12.6562 12.3857 12.5121 12.3857 12.3645C12.3857 12.2168 12.3925 12.0727 12.4093 11.9285L11.5712 11.4258C11.3659 11.3027 11.2616 11.0566 11.3289 10.8211C11.44 10.4484 11.5881 10.0828 11.7833 9.73125C11.9785 9.37969 12.204 9.05977 12.4598 8.775C12.6213 8.5957 12.8771 8.56758 13.0824 8.69063L13.9171 9.19336C14.1493 9.01406 14.4051 8.86289 14.6744 8.73984V7.67109ZM17.7742 12.3645C17.7742 11.4328 17.0506 10.677 16.1553 10.677C15.26 10.677 14.5364 11.4328 14.5364 12.3645C14.5364 13.2961 15.26 14.052 16.1553 14.052C17.0506 14.052 17.7742 13.2961 17.7742 12.3645Z" fill="#A1B1CF"/>
</svg>
