<svg width="15" height="18" viewBox="0 0 15 18" fill="none" xmlns="http://www.w3.org/2000/svg">
<path d="M4.28571 0C4.87835 0 5.35714 0.502734 5.35714 1.125V2.25H9.64286V1.125C9.64286 0.502734 10.1217 0 10.7143 0C11.3069 0 11.7857 0.502734 11.7857 1.125V2.25H13.3929C14.2801 2.25 15 3.00586 15 3.9375V5.625H0V3.9375C0 3.00586 0.719866 2.25 1.60714 2.25H3.21429V1.125C3.21429 0.502734 3.69308 0 4.28571 0ZM0 6.75H15V16.3125C15 17.2441 14.2801 18 13.3929 18H1.60714C0.719866 18 0 17.2441 0 16.3125V6.75ZM2.14286 9.5625V10.6875C2.14286 10.9969 2.38393 11.25 2.67857 11.25H3.75C4.04464 11.25 4.28571 10.9969 4.28571 10.6875V9.5625C4.28571 9.25313 4.04464 9 3.75 9H2.67857C2.38393 9 2.14286 9.25313 2.14286 9.5625ZM6.42857 9.5625V10.6875C6.42857 10.9969 6.66964 11.25 6.96429 11.25H8.03571C8.33036 11.25 8.57143 10.9969 8.57143 10.6875V9.5625C8.57143 9.25313 8.33036 9 8.03571 9H6.96429C6.66964 9 6.42857 9.25313 6.42857 9.5625ZM11.25 9C10.9554 9 10.7143 9.25313 10.7143 9.5625V10.6875C10.7143 10.9969 10.9554 11.25 11.25 11.25H12.3214C12.6161 11.25 12.8571 10.9969 12.8571 10.6875V9.5625C12.8571 9.25313 12.6161 9 12.3214 9H11.25ZM2.14286 14.0625V15.1875C2.14286 15.4969 2.38393 15.75 2.67857 15.75H3.75C4.04464 15.75 4.28571 15.4969 4.28571 15.1875V14.0625C4.28571 13.7531 4.04464 13.5 3.75 13.5H2.67857C2.38393 13.5 2.14286 13.7531 2.14286 14.0625ZM6.96429 13.5C6.66964 13.5 6.42857 13.7531 6.42857 14.0625V15.1875C6.42857 15.4969 6.66964 15.75 6.96429 15.75H8.03571C8.33036 15.75 8.57143 15.4969 8.57143 15.1875V14.0625C8.57143 13.7531 8.33036 13.5 8.03571 13.5H6.96429ZM10.7143 14.0625V15.1875C10.7143 15.4969 10.9554 15.75 11.25 15.75H12.3214C12.6161 15.75 12.8571 15.4969 12.8571 15.1875V14.0625C12.8571 13.7531 12.6161 13.5 12.3214 13.5H11.25C10.9554 13.5 10.7143 13.7531 10.7143 14.0625Z" fill="#A1B1CF"/>
</svg>
