<svg width="15" height="13" viewBox="0 0 15 13" fill="none" xmlns="http://www.w3.org/2000/svg">
<path d="M3.07258 5.94685C2.98255 6.14858 2.86536 6.33496 2.7248 6.5C2.86536 6.66504 2.98255 6.85142 3.07258 7.05315C3.3871 7.7506 3.3871 8.56895 3.3871 9.36C3.3871 11.0461 3.49839 11.44 4.59677 11.44C4.78927 11.44 4.97388 11.5222 5.11 11.6685C5.24611 11.8147 5.32258 12.0131 5.32258 12.22C5.32258 12.4269 5.24611 12.6253 5.11 12.7715C4.97388 12.9178 4.78927 13 4.59677 13C3.43911 13 2.64919 12.5515 2.25 11.6669C1.93548 10.9694 1.93548 10.151 1.93548 9.36C1.93548 7.6739 1.82419 7.28 0.725806 7.28C0.533311 7.28 0.348699 7.19782 0.212584 7.05154C0.0764687 6.90526 0 6.70687 0 6.5C0 6.29313 0.0764687 6.09473 0.212584 5.94846C0.348699 5.80218 0.533311 5.72 0.725806 5.72C1.82419 5.72 1.93548 5.3261 1.93548 3.64C1.93548 2.84895 1.93548 2.0306 2.25 1.33315C2.64919 0.4485 3.43911 0 4.59677 0C4.78927 0 4.97388 0.0821784 5.11 0.228457C5.24611 0.374735 5.32258 0.573131 5.32258 0.78C5.32258 0.986869 5.24611 1.18526 5.11 1.33154C4.97388 1.47782 4.78927 1.56 4.59677 1.56C3.49839 1.56 3.3871 1.9539 3.3871 3.64C3.3871 4.43105 3.3871 5.2494 3.07258 5.94685ZM14.2742 5.72C13.1758 5.72 13.0645 5.3261 13.0645 3.64C13.0645 2.84895 13.0645 2.0306 12.75 1.33315C12.3508 0.4485 11.5609 0 10.4032 0C10.2107 0 10.0261 0.0821784 9.89 0.228457C9.75389 0.374735 9.67742 0.573131 9.67742 0.78C9.67742 0.986869 9.75389 1.18526 9.89 1.33154C10.0261 1.47782 10.2107 1.56 10.4032 1.56C11.5016 1.56 11.6129 1.9539 11.6129 3.64C11.6129 4.43105 11.6129 5.2494 11.9274 5.94685C12.0184 6.14879 12.1366 6.33518 12.2782 6.5C12.1377 6.66504 12.0205 6.85142 11.9304 7.05315C11.6129 7.7506 11.6129 8.56895 11.6129 9.36C11.6129 11.0461 11.5016 11.44 10.4032 11.44C10.2107 11.44 10.0261 11.5222 9.89 11.6685C9.75389 11.8147 9.67742 12.0131 9.67742 12.22C9.67742 12.4269 9.75389 12.6253 9.89 12.7715C10.0261 12.9178 10.2107 13 10.4032 13C11.5609 13 12.3508 12.5515 12.75 11.6669C13.0645 10.9694 13.0645 10.151 13.0645 9.36C13.0645 7.6739 13.1758 7.28 14.2742 7.28C14.4667 7.28 14.6513 7.19782 14.7874 7.05154C14.9235 6.90526 15 6.70687 15 6.5C15 6.29313 14.9235 6.09473 14.7874 5.94846C14.6513 5.80218 14.4667 5.72 14.2742 5.72Z" fill="#A1B1CF"/>
</svg>
