<svg width="15" height="15" viewBox="0 0 15 15" fill="none" xmlns="http://www.w3.org/2000/svg">
<g clip-path="url(#clip0_671_1123)">
<path d="M6.42857 12.8571H11.7857C12.0699 12.8571 12.3424 12.7443 12.5433 12.5433C12.7443 12.3424 12.8571 12.0699 12.8571 11.7857V6.42857H6.42857V12.8571ZM4.28571 12.8571V6.42857H2.14286V11.7857C2.14286 12.0699 2.25574 12.3424 2.45667 12.5433C2.6576 12.7443 2.93012 12.8571 3.21429 12.8571H4.28571ZM12.8571 3.21429C12.8571 2.93012 12.7443 2.6576 12.5433 2.45667C12.3424 2.25574 12.0699 2.14286 11.7857 2.14286H3.21429C2.93012 2.14286 2.6576 2.25574 2.45667 2.45667C2.25574 2.6576 2.14286 2.93012 2.14286 3.21429V4.28571H12.8571V3.21429ZM3.21429 0H11.7857C12.6382 0 13.4558 0.338647 14.0586 0.941442C14.6614 1.54424 15 2.3618 15 3.21429V11.7857C15 12.6382 14.6614 13.4558 14.0586 14.0586C13.4558 14.6614 12.6382 15 11.7857 15H3.21429C2.3618 15 1.54424 14.6614 0.941442 14.0586C0.338647 13.4558 0 12.6382 0 11.7857L0 3.21429C0 2.3618 0.338647 1.54424 0.941442 0.941442C1.54424 0.338647 2.3618 0 3.21429 0Z" fill="#A1B1CF"/>
</g>
<defs>
<clipPath id="clip0_671_1123">
<rect width="15" height="15" fill="white"/>
</clipPath>
</defs>
</svg>
