<svg width="15" height="19" viewBox="0 0 15 19" fill="none" xmlns="http://www.w3.org/2000/svg">
<path d="M3.21429 4.51907V2.47837C3.21429 2.00879 3.49219 1.58512 3.91071 1.41918L7.125 0.148155C7.36607 0.0528285 7.63393 0.0528285 7.87835 0.148155L11.0926 1.41918C11.5112 1.58512 11.7891 2.00526 11.7891 2.47837V4.51907H11.779C11.7857 4.61086 11.7891 4.70619 11.7891 4.80152V6.21377C11.7891 8.70992 9.87054 10.733 7.50335 10.733C5.13616 10.733 3.21763 8.70992 3.21763 6.21377V4.80152C3.21763 4.70619 3.22098 4.61086 3.22768 4.51907H3.21429ZM4.82143 6.21377C4.82143 7.7743 6.02009 9.03826 7.5 9.03826C8.97991 9.03826 10.1786 7.7743 10.1786 6.21377V5.64887H4.82143V6.21377ZM4.32254 11.4108L7.10826 14.5319C7.3192 14.7685 7.67746 14.7685 7.88839 14.5319L10.6741 11.4108C13.1417 11.9369 14.9967 14.2353 14.9967 16.9928C14.9967 17.593 14.5346 18.0767 13.9688 18.0767H1.0279C0.462054 18.0767 0 17.5894 0 16.9928C0 14.2353 1.85826 11.9369 4.32254 11.4108ZM6.96429 1.69457V2.25947H6.42857C6.28125 2.25947 6.16071 2.38657 6.16071 2.54192V3.10682C6.16071 3.26216 6.28125 3.38927 6.42857 3.38927H6.96429V3.95417C6.96429 4.10951 7.08482 4.23662 7.23214 4.23662H7.76786C7.91518 4.23662 8.03571 4.10951 8.03571 3.95417V3.38927H8.57143C8.71875 3.38927 8.83929 3.26216 8.83929 3.10682V2.54192C8.83929 2.38657 8.71875 2.25947 8.57143 2.25947H8.03571V1.69457C8.03571 1.53922 7.91518 1.41212 7.76786 1.41212H7.23214C7.08482 1.41212 6.96429 1.53922 6.96429 1.69457Z" fill="#A1B1CF"/>
</svg>
