<svg width="14" height="12" viewBox="0 0 14 12" fill="none" xmlns="http://www.w3.org/2000/svg">
<path d="M13.707 6.70597C14.0977 6.3155 14.0977 5.68137 13.707 5.2909L8.70674 0.292854C8.31609 -0.0976182 7.68168 -0.0976182 7.29103 0.292854C6.90039 0.683327 6.90039 1.31746 7.29103 1.70793L10.5881 5.00039L1.00006 5.00039C0.4469 5.00039 4.35753e-08 5.44709 4.35753e-08 6C4.35753e-08 6.55291 0.4469 6.99961 1.00006 6.99961L10.585 6.99961L7.29416 10.2921C6.90351 10.6825 6.90351 11.3167 7.29416 11.7071C7.6848 12.0976 8.31921 12.0976 8.70986 11.7071L13.7101 6.7091L13.707 6.70597Z" fill="#8F9EB8"/>
</svg>
